{
  "accessors": [
    {
      "bufferView": 2,
      "componentType": 5126,
      "count": 65532,
      "max": [
        0.00501704216003418,
        -0.21273094415664673,
        0.5080946683883667
      ],
      "min": [
        -0.10750288516283035,
        -0.4402819275856018,
        0.4594685435295105
      ],
      "type": "VEC3"
    },
    {
      "bufferView": 2,
      "byteOffset": 786384,
      "componentType": 5126,
      "count": 65532,
      "max": [
        0.9999987483024597,
        0.9930133819580078,
        1.0
      ],
      "min": [
        -0.9781469702720642,
        -0.9318577647209167,
        -0.9999973773956299
      ],
      "type": "VEC3"
    },
    {
      "bufferView": 1,
      "componentType": 5126,
      "count": 65532,
      "max": [
        0.9996159076690674,
        0.9645994901657104
      ],
      "min": [
        0.000244140625,
        0.00025107397232204676
      ],
      "type": "VEC2"
    },
    {
      "bufferView": 1,
      "byteOffset": 524256,
      "componentType": 5126,
      "count": 65532,
      "max": [
        0.9996159076690674,
        0.9645994901657104
      ],
      "min": [
        0.000244140625,
        0.00025107397232204676
      ],
      "type": "VEC2"
    },
    {
      "bufferView": 0,
      "componentType": 5125,
      "count": 321357,
      "type": "SCALAR"
    },
    {
      "bufferView": 2,
      "byteOffset": 1572768,
      "componentType": 5126,
      "count": 65532,
      "max": [
        0.004570618271827698,
        -0.21250219643115997,
        0.5070108771324158
      ],
      "min": [
        -0.10807938873767853,
        -0.42961186170578003,
        0.4584769010543823
      ],
      "type": "VEC3"
    },
    {
      "bufferView": 2,
      "byteOffset": 2359152,
      "componentType": 5126,
      "count": 65532,
      "max": [
        0.9999999403953552,
        0.999999463558197,
        1.0
      ],
      "min": [
        -0.9993956089019775,
        -0.9991608262062073,
        -0.9999991655349731
      ],
      "type": "VEC3"
    },
    {
      "bufferView": 1,
      "byteOffset": 1048512,
      "componentType": 5126,
      "count": 65532,
      "max": [
        0.9997257590293884,
        0.9187010526657104
      ],
      "min": [
        0.000244140625,
        0.00025554432068020105
      ],
      "type": "VEC2"
    },
    {
      "bufferView": 1,
      "byteOffset": 1572768,
      "componentType": 5126,
      "count": 65532,
      "max": [
        0.9997257590293884,
        0.9187010526657104
      ],
      "min": [
        0.000244140625,
        0.00025554432068020105
      ],
      "type": "VEC2"
    },
    {
      "bufferView": 0,
      "byteOffset": 1285428,
      "componentType": 5125,
      "count": 289902,
      "type": "SCALAR"
    },
    {
      "bufferView": 2,
      "byteOffset": 3145536,
      "componentType": 5126,
      "count": 65534,
      "max": [
        0.00501704216003418,
        -0.21250219643115997,
        0.5070108771324158
      ],
      "min": [
        -0.11119429767131805,
        -0.3919987976551056,
        0.4584992229938507
      ],
      "type": "VEC3"
    },
    {
      "bufferView": 2,
      "byteOffset": 3931944,
      "componentType": 5126,
      "count": 65534,
      "max": [
        0.9999268054962158,
        0.9999982714653015,
        1.0
      ],
      "min": [
        -0.9998053908348083,
        -0.9972648620605469,
        -0.9999995827674866
      ],
      "type": "VEC3"
    },
    {
      "bufferView": 1,
      "byteOffset": 2097024,
      "componentType": 5126,
      "count": 65534,
      "max": [
        0.9997504353523254,
        0.9172312021255493
      ],
      "min": [
        0.000244140625,
        0.00031032098922878504
      ],
      "type": "VEC2"
    },
    {
      "bufferView": 1,
      "byteOffset": 2621296,
      "componentType": 5126,
      "count": 65534,
      "max": [
        0.9997504353523254,
        0.9172312021255493
      ],
      "min": [
        0.000244140625,
        0.00031032098922878504
      ],
      "type": "VEC2"
    },
    {
      "bufferView": 0,
      "byteOffset": 2445036,
      "componentType": 5125,
      "count": 272160,
      "type": "SCALAR"
    },
    {
      "bufferView": 2,
      "byteOffset": 4718352,
      "componentType": 5126,
      "count": 65532,
      "max": [
        0.00501704216003418,
        -0.21295326948165894,
        0.5080946683883667
      ],
      "min": [
        -0.213750422000885,
        -0.4402819275856018,
        0.45448005199432373
      ],
      "type": "VEC3"
    },
    {
      "bufferView": 2,
      "byteOffset": 5504736,
      "componentType": 5126,
      "count": 65532,
      "max": [
        0.99998539686203,
        0.9999072551727295,
        1.0
      ],
      "min": [
        -0.9996308088302612,
        -0.9999992251396179,
        -0.9999926090240479
      ],
      "type": "VEC3"
    },
    {
      "bufferView": 1,
      "byteOffset": 3145568,
      "componentType": 5126,
      "count": 65532,
      "max": [
        0.9997369050979614,
        0.9294432401657104
      ],
      "min": [
        0.000244140625,
        0.00024982227478176355
      ],
      "type": "VEC2"
    },
    {
      "bufferView": 1,
      "byteOffset": 3669824,
      "componentType": 5126,
      "count": 65532,
      "max": [
        0.9997369050979614,
        0.9294432401657104
      ],
      "min": [
        0.000244140625,
        0.00024982227478176355
      ],
      "type": "VEC2"
    },
    {
      "bufferView": 0,
      "byteOffset": 3533676,
      "componentType": 5125,
      "count": 300081,
      "type": "SCALAR"
    },
    {
      "bufferView": 2,
      "byteOffset": 6291120,
      "componentType": 5126,
      "count": 65532,
      "max": [
        0.004288405179977417,
        -0.2502841353416443,
        0.5080946683883667
      ],
      "min": [
        -0.21280667185783386,
        -0.4402819275856018,
        0.45700159668922424
      ],
      "type": "VEC3"
    },
    {
      "bufferView": 2,
      "byteOffset": 7077504,
      "componentType": 5126,
      "count": 65532,
      "max": [
        0.9997433423995972,
        0.9998331069946289,
        0.9837690591812134
      ],
      "min": [
        -0.999971866607666,
        -0.9998582005500793,
        -0.9999986886978149
      ],
      "type": "VEC3"
    },
    {
      "bufferView": 1,
      "byteOffset": 4194080,
      "componentType": 5126,
      "count": 65532,
      "max": [
        0.9997349977493286,
        0.9112725853919983
      ],
      "min": [
        0.000244140625,
        0.0002449942985549569
      ],
      "type": "VEC2"
    },
    {
      "bufferView": 1,
      "byteOffset": 4718336,
      "componentType": 5126,
      "count": 65532,
      "max": [
        0.9997349977493286,
        0.9112725853919983
      ],
      "min": [
        0.000244140625,
        0.0002449942985549569
      ],
      "type": "VEC2"
    },
    {
      "bufferView": 0,
      "byteOffset": 4734000,
      "componentType": 5125,
      "count": 273432,
      "type": "SCALAR"
    },
    {
      "bufferView": 2,
      "byteOffset": 7863888,
      "componentType": 5126,
      "count": 65532,
      "max": [
        -0.08669905364513397,
        -0.24678251147270203,
        0.501063346862793
      ],
      "min": [
        -0.21019625663757324,
        -0.3844122290611267,
        0.4652783274650574
      ],
      "type": "VEC3"
    },
    {
      "bufferView": 2,
      "byteOffset": 8650272,
      "componentType": 5126,
      "count": 65532,
      "max": [
        0.9988278746604919,
        0.999984622001648,
        0.9128385782241821
      ],
      "min": [
        -0.9999771118164063,
        -0.9783610105514526,
        -0.999997615814209
      ],
      "type": "VEC3"
    },
    {
      "bufferView": 1,
      "byteOffset": 5242592,
      "componentType": 5126,
      "count": 65532,
      "max": [
        0.9993981122970581,
        0.8054198026657104
      ],
      "min": [
        0.000244140625,
        0.00026388897094875574
      ],
      "type": "VEC2"
    },
    {
      "bufferView": 1,
      "byteOffset": 5766848,
      "componentType": 5126,
      "count": 65532,
      "max": [
        0.9993981122970581,
        0.8054198026657104
      ],
      "min": [
        0.000244140625,
        0.00026388897094875574
      ],
      "type": "VEC2"
    },
    {
      "bufferView": 0,
      "byteOffset": 5827728,
      "componentType": 5125,
      "count": 311028,
      "type": "SCALAR"
    },
    {
      "bufferView": 2,
      "byteOffset": 9436656,
      "componentType": 5126,
      "count": 65532,
      "max": [
        -0.08656712621450424,
        -0.21295326948165894,
        0.5070108771324158
      ],
      "min": [
        -0.22395217418670654,
        -0.4388754069805145,
        0.4584769010543823
      ],
      "type": "VEC3"
    },
    {
      "bufferView": 2,
      "byteOffset": 10223040,
      "componentType": 5126,
      "count": 65532,
      "max": [
        0.9996894598007202,
        0.9999938607215881,
        1.0
      ],
      "min": [
        -0.9999990463256836,
        -0.9967623949050903,
        -0.9999998807907104
      ],
      "type": "VEC3"
    },
    {
      "bufferView": 1,
      "byteOffset": 6291104,
      "componentType": 5126,
      "count": 65532,
      "max": [
        0.9996519088745117,
        0.9147948026657104
      ],
      "min": [
        0.000244140625,
        0.0002470804611220956
      ],
      "type": "VEC2"
    },
    {
      "bufferView": 1,
      "byteOffset": 6815360,
      "componentType": 5126,
      "count": 65532,
      "max": [
        0.9996519088745117,
        0.9147948026657104
      ],
      "min": [
        0.000244140625,
        0.0002470804611220956
      ],
      "type": "VEC2"
    },
    {
      "bufferView": 0,
      "byteOffset": 7071840,
      "componentType": 5125,
      "count": 297180,
      "type": "SCALAR"
    },
    {
      "bufferView": 2,
      "byteOffset": 11009424,
      "componentType": 5126,
      "count": 65532,
      "max": [
        -0.08633801341056824,
        -0.2130090892314911,
        0.5070108771324158
      ],
      "min": [
        -0.22394250333309174,
        -0.4392138719558716,
        0.46016767621040344
      ],
      "type": "VEC3"
    },
    {
      "bufferView": 2,
      "byteOffset": 11795808,
      "componentType": 5126,
      "count": 65532,
      "max": [
        0.996454656124115,
        0.9999330639839172,
        1.0
      ],
      "min": [
        -0.999997615814209,
        -1.0,
        -0.9999948143959045
      ],
      "type": "VEC3"
    },
    {
      "bufferView": 1,
      "byteOffset": 7339616,
      "componentType": 5126,
      "count": 65532,
      "max": [
        0.9997442364692688,
        0.9382323026657104
      ],
      "min": [
        0.000244140625,
        0.00027467741165310144
      ],
      "type": "VEC2"
    },
    {
      "bufferView": 1,
      "byteOffset": 7863872,
      "componentType": 5126,
      "count": 65532,
      "max": [
        0.9997442364692688,
        0.9382323026657104
      ],
      "min": [
        0.000244140625,
        0.00027467741165310144
      ],
      "type": "VEC2"
    },
    {
      "bufferView": 0,
      "byteOffset": 8260560,
      "componentType": 5125,
      "count": 287832,
      "type": "SCALAR"
    },
    {
      "bufferView": 2,
      "byteOffset": 12582192,
      "componentType": 5126,
      "count": 65532,
      "max": [
        -0.08682946860790253,
        -0.21295326948165894,
        0.5082160234451294
      ],
      "min": [
        -0.22395217418670654,
        -0.4392046332359314,
        0.4595257341861725
      ],
      "type": "VEC3"
    },
    {
      "bufferView": 2,
      "byteOffset": 13368576,
      "componentType": 5126,
      "count": 65532,
      "max": [
        0.9998362064361572,
        0.9999751448631287,
        1.0
      ],
      "min": [
        -0.9999990463256836,
        -0.9999945759773254,
        -0.9999978542327881
      ],
      "type": "VEC3"
    },
    {
      "bufferView": 1,
      "byteOffset": 8388128,
      "componentType": 5126,
      "count": 65532,
      "max": [
        0.9997254610061646,
        0.9364743232727051
      ],
      "min": [
        0.000244140625,
        0.0002483917633071542
      ],
      "type": "VEC2"
    },
    {
      "bufferView": 1,
      "byteOffset": 8912384,
      "componentType": 5126,
      "count": 65532,
      "max": [
        0.9997254610061646,
        0.9364743232727051
      ],
      "min": [
        0.000244140625,
        0.0002483917633071542
      ],
      "type": "VEC2"
    },
    {
      "bufferView": 0,
      "byteOffset": 9411888,
      "componentType": 5125,
      "count": 260397,
      "type": "SCALAR"
    },
    {
      "bufferView": 2,
      "byteOffset": 14154960,
      "componentType": 5126,
      "count": 65532,
      "max": [
        -0.0866578221321106,
        -0.23187348246574402,
        0.5015459060668945
      ],
      "min": [
        -0.22361961007118225,
        -0.37673696875572205,
        0.45865026116371155
      ],
      "type": "VEC3"
    },
    {
      "bufferView": 2,
      "byteOffset": 14941344,
      "componentType": 5126,
      "count": 65532,
      "max": [
        0.9993135929107666,
        0.9999744892120361,
        0.92579585313797
      ],
      "min": [
        -0.9999993443489075,
        -0.9992730021476746,
        -0.9999994039535522
      ],
      "type": "VEC3"
    },
    {
      "bufferView": 1,
      "byteOffset": 9436640,
      "componentType": 5126,
      "count": 65532,
      "max": [
        0.9997497797012329,
        0.8386229276657104
      ],
      "min": [
        0.000244140625,
        0.00024785532150417566
      ],
      "type": "VEC2"
    },
    {
      "bufferView": 1,
      "byteOffset": 9960896,
      "componentType": 5126,
      "count": 65532,
      "max": [
        0.9997497797012329,
        0.8386229276657104
      ],
      "min": [
        0.000244140625,
        0.00024785532150417566
      ],
      "type": "VEC2"
    },
    {
      "bufferView": 0,
      "byteOffset": 10453476,
      "componentType": 5125,
      "count": 273615,
      "type": "SCALAR"
    },
    {
      "bufferView": 2,
      "byteOffset": 15727728,
      "componentType": 5126,
      "count": 32737,
      "max": [
        -0.08673258870840073,
        -0.281277060508728,
        0.5016981959342957
      ],
      "min": [
        -0.18434616923332214,
        -0.3764094412326813,
        0.4677380323410034
      ],
      "type": "VEC3"
    },
    {
      "bufferView": 2,
      "byteOffset": 16120572,
      "componentType": 5126,
      "count": 32737,
      "max": [
        0.9993209838867188,
        0.9999837279319763,
        0.9023150205612183
      ],
      "min": [
        -0.9999740123748779,
        -0.9878844022750854,
        -0.9999985098838806
      ],
      "type": "VEC3"
    },
    {
      "bufferView": 1,
      "byteOffset": 10485152,
      "componentType": 5126,
      "count": 32737,
      "max": [
        0.9997235536575317,
        0.7994289398193359
      ],
      "min": [
        0.000244140625,
        0.0002451135078445077
      ],
      "type": "VEC2"
    },
    {
      "bufferView": 1,
      "byteOffset": 10747048,
      "componentType": 5126,
      "count": 32737,
      "max": [
        0.9997235536575317,
        0.7994289398193359
      ],
      "min": [
        0.000244140625,
        0.0002451135078445077
      ],
      "type": "VEC2"
    },
    {
      "bufferView": 0,
      "byteOffset": 11547936,
      "componentType": 5125,
      "count": 112908,
      "type": "SCALAR"
    }
  ],
  "asset": {
    "extras": {
      "author": "bilal (https://sketchfab.com/mohammadbilal)",
      "license": "CC-BY-4.0 (http://creativecommons.org/licenses/by/4.0/)",
      "source": "https://sketchfab.com/3d-models/caramel-cheesecake-sliced-58fc06fbcd0f421bba8b8c8f3487aa7a",
      "title": "Caramel Cheesecake Sliced"
    },
    "generator": "Sketchfab-14.32.0",
    "version": "2.0"
  },
  "bufferViews": [
    {
      "buffer": 0,
      "byteLength": 11999568,
      "name": "floatBufferViews",
      "target": 34963
    },
    {
      "buffer": 0,
      "byteLength": 11008944,
      "byteOffset": 11999568,
      "byteStride": 8,
      "name": "floatBufferViews",
      "target": 34962
    },
    {
      "buffer": 0,
      "byteLength": 16513416,
      "byteOffset": 23008512,
      "byteStride": 12,
      "name": "floatBufferViews",
      "target": 34962
    }
  ],
  "buffers": [
    {
      "byteLength": 39521928,
      "uri": "scene.bin"
    }
  ],
  "extensionsUsed": [
    "KHR_materials_unlit"
  ],
  "images": [
    {
      "uri": "textures/tex_u1_v1_baseColor.jpeg"
    }
  ],
  "materials": [
    {
      "doubleSided": true,
      "extensions": {
        "KHR_materials_unlit": {}
      },
      "name": "tex_u1_v1",
      "pbrMetallicRoughness": {
        "baseColorTexture": {
          "index": 0
        },
        "metallicFactor": 0.0
      }
    }
  ],
  "meshes": [
    {
      "name": "model_tex_u1_v1_0",
      "primitives": [
        {
          "attributes": {
            "NORMAL": 1,
            "POSITION": 0,
            "TEXCOORD_0": 2,
            "TEXCOORD_1": 3
          },
          "indices": 4,
          "material": 0,
          "mode": 4
        }
      ]
    },
    {
      "name": "model_tex_u1_v1_0",
      "primitives": [
        {
          "attributes": {
            "NORMAL": 6,
            "POSITION": 5,
            "TEXCOORD_0": 7,
            "TEXCOORD_1": 8
          },
          "indices": 9,
          "material": 0,
          "mode": 4
        }
      ]
    },
    {
      "name": "model_tex_u1_v1_0",
      "primitives": [
        {
          "attributes": {
            "NORMAL": 11,
            "POSITION": 10,
            "TEXCOORD_0": 12,
            "TEXCOORD_1": 13
          },
          "indices": 14,
          "material": 0,
          "mode": 4
        }
      ]
    },
    {
      "name": "model_tex_u1_v1_0",
      "primitives": [
        {
          "attributes": {
            "NORMAL": 16,
            "POSITION": 15,
            "TEXCOORD_0": 17,
            "TEXCOORD_1": 18
          },
          "indices": 19,
          "material": 0,
          "mode": 4
        }
      ]
    },
    {
      "name": "model_tex_u1_v1_0",
      "primitives": [
        {
          "attributes": {
            "NORMAL": 21,
            "POSITION": 20,
            "TEXCOORD_0": 22,
            "TEXCOORD_1": 23
          },
          "indices": 24,
          "material": 0,
          "mode": 4
        }
      ]
    },
    {
      "name": "model_tex_u1_v1_0",
      "primitives": [
        {
          "attributes": {
            "NORMAL": 26,
            "POSITION": 25,
            "TEXCOORD_0": 27,
            "TEXCOORD_1": 28
          },
          "indices": 29,
          "material": 0,
          "mode": 4
        }
      ]
    },
    {
      "name": "model_tex_u1_v1_0",
      "primitives": [
        {
          "attributes": {
            "NORMAL": 31,
            "POSITION": 30,
            "TEXCOORD_0": 32,
            "TEXCOORD_1": 33
          },
          "indices": 34,
          "material": 0,
          "mode": 4
        }
      ]
    },
    {
      "name": "model_tex_u1_v1_0",
      "primitives": [
        {
          "attributes": {
            "NORMAL": 36,
            "POSITION": 35,
            "TEXCOORD_0": 37,
            "TEXCOORD_1": 38
          },
          "indices": 39,
          "material": 0,
          "mode": 4
        }
      ]
    },
    {
      "name": "model_tex_u1_v1_0",
      "primitives": [
        {
          "attributes": {
            "NORMAL": 41,
            "POSITION": 40,
            "TEXCOORD_0": 42,
            "TEXCOORD_1": 43
          },
          "indices": 44,
          "material": 0,
          "mode": 4
        }
      ]
    },
    {
      "name": "model_tex_u1_v1_0",
      "primitives": [
        {
          "attributes": {
            "NORMAL": 46,
            "POSITION": 45,
            "TEXCOORD_0": 47,
            "TEXCOORD_1": 48
          },
          "indices": 49,
          "material": 0,
          "mode": 4
        }
      ]
    },
    {
      "name": "model_tex_u1_v1_0",
      "primitives": [
        {
          "attributes": {
            "NORMAL": 51,
            "POSITION": 50,
            "TEXCOORD_0": 52,
            "TEXCOORD_1": 53
          },
          "indices": 54,
          "material": 0,
          "mode": 4
        }
      ]
    }
  ],
  "nodes": [
    {
      "children": [
        1
      ],
      "matrix": [
        1.0,
        0.0,
        0.0,
        0.0,
        0.0,
        2.220446049250313e-16,
        -1.0,
        0.0,
        0.0,
        1.0,
        2.220446049250313e-16,
        0.0,
        0.0,
        0.0,
        0.0,
        1.0
      ],
      "name": "Sketchfab_model"
    },
    {
      "children": [
        2
      ],
      "matrix": [
        1.0,
        0.0,
        0.0,
        0.0,
        0.0,
        -1.0,
        0.0,
        0.0,
        0.0,
        0.0,
        -1.0,
        0.0,
        0.0,
        0.0,
        0.0,
        1.0
      ],
      "name": "model.fbx"
    },
    {
      "children": [
        3
      ],
      "name": "RootNode"
    },
    {
      "children": [
        4,
        5,
        6,
        7,
        8,
        9,
        10,
        11,
        12,
        13,
        14
      ],
      "name": "model"
    },
    {
      "mesh": 0,
      "name": "model_tex_u1_v1_0"
    },
    {
      "mesh": 1,
      "name": "model_tex_u1_v1_0"
    },
    {
      "mesh": 2,
      "name": "model_tex_u1_v1_0"
    },
    {
      "mesh": 3,
      "name": "model_tex_u1_v1_0"
    },
    {
      "mesh": 4,
      "name": "model_tex_u1_v1_0"
    },
    {
      "mesh": 5,
      "name": "model_tex_u1_v1_0"
    },
    {
      "mesh": 6,
      "name": "model_tex_u1_v1_0"
    },
    {
      "mesh": 7,
      "name": "model_tex_u1_v1_0"
    },
    {
      "mesh": 8,
      "name": "model_tex_u1_v1_0"
    },
    {
      "mesh": 9,
      "name": "model_tex_u1_v1_0"
    },
    {
      "mesh": 10,
      "name": "model_tex_u1_v1_0"
    }
  ],
  "samplers": [
    {
      "magFilter": 9729,
      "minFilter": 9987,
      "wrapS": 10497,
      "wrapT": 10497
    }
  ],
  "scene": 0,
  "scenes": [
    {
      "name": "Sketchfab_Scene",
      "nodes": [
        0
      ]
    }
  ],
  "textures": [
    {
      "sampler": 0,
      "source": 0
    }
  ]
}
